<?xml version="1.0" encoding="utf-8"?>
<svg viewBox="0 95.957 98.261 26.558" xmlns="http://www.w3.org/2000/svg">
  <g transform="matrix(0.10000000149011612, 0, 0, -0.10000000149011612, -107.52500312812631, 328.5152026491643)" fill="#000000" stroke="none">
    <path d="M 1140 2232 C 1121 2184 1097 2126 1088 2103 C 1071 2062 1071 2060 1088 2060 C 1098 2060 1110 2072 1117 2090 C 1128 2119 1130 2120 1193 2120 C 1255 2120 1258 2119 1270 2090 C 1277 2074 1289 2060 1296 2060 C 1304 2060 1310 2063 1310 2066 C 1310 2069 1287 2127 1259 2196 C 1223 2284 1203 2320 1191 2320 C 1180 2320 1164 2293 1140 2232 Z M 1234 2172 C 1241 2151 1231.81 2152.397 1183.81 2152.397 C 1183.81 2152.397 1153.067 2147.606 1147.19 2154.793 C 1138.58 2165.321 1161 2202 1161 2202 C 1172 2231 1184 2258 1187 2264 C 1193 2273 1217 2226 1234 2172 Z" style="fill: rgb(65, 124, 238);"/>
    <path d="M1380 2190 l0 -130 80 0 c64 0 80 3 80 15 0 12 -13 15 -60 15 l-60 0 0 115 c0 108 -1 115 -20 115 -19 0 -20 -7 -20 -130z" style="fill: rgb(65, 124, 238);"/>
    <path d="M 1620 2190 C 1620 2081 1622 2060 1635 2060 C 1647 2060 1650 2073 1650 2115 L 1650 2170 L 1705 2170 C 1747 2170 1760 2173 1760 2185 C 1760 2197 1747 2200 1705 2200 L 1650 2200 L 1650 2245 L 1650 2289 L 1707 2292 C 1741 2294 1768.609 2287.816 1768 2308 C 1767.496 2324.682 1752 2324.653 1696 2324.653 C 1696 2324.653 1628.118 2328.656 1620 2320 C 1613.089 2312.631 1620 2190 1620 2190 Z" style="fill: rgb(65, 124, 238);"/>
    <path d="M1876 2203 c-27 -65 -51 -124 -53 -130 -3 -8 2 -13 12 -13 9 0 22 13 28 30 11 29 13 30 77 30 64 0 66 -1 77 -30 6 -17 19 -30 28 -30 10 0 15 5 12 13 -67 170 -103 247 -117 247 -11 0 -31 -36 -64 -117z m90 15 c10 -29 21 -56 22 -60 2 -4 -20 -8 -48 -8 -28 0 -50 4 -48 8 2 4 12 31 22 60 11 29 23 52 26 52 3 0 15 -23 26 -52z" style="fill: rgb(65, 124, 238);"/>
  </g>
</svg>