<?xml version="1.0" encoding="utf-8"?>
<svg viewBox="0 0 280.976 83.378" xmlns="http://www.w3.org/2000/svg">
  <g transform="matrix(0.10000000149011612, 0, 0, -0.10000000149011612, -107.52500312812631, 328.5152026491643)" fill="#000000" stroke="none">
    <path d="M 2036.696 3280 C 1935.696 3268 1755.696 3220 1606.696 3164 C 1517.696 3131 1474.696 3120 1430.696 3120 C 1368.696 3120 1154.696 3095 1127.696 3085 C 1103.696 3076 1099.696 3056 1114.696 3026 C 1127.696 3002 1125.696 2995 1102.696 2947 C 1067.696 2880 1066.696 2812 1096.696 2750 L 1119.696 2705 L 1098.696 2689 C 1067.696 2666 1079.696 2653 1178.696 2608 C 1225.696 2586 1270.696 2559 1277.696 2548 C 1285.696 2537 1309.696 2515 1332.696 2499 L 1372.696 2470 L 1288.696 2470 C 1230.696 2470 1209.696 2467 1219.696 2460 C 1236.696 2449 3444.696 2448 3554.696 2460 L 3624.696 2467 L 3529.696 2469 C 3477.696 2470 3426.696 2475 3415.696 2479 C 3400.696 2485 3403.696 2489 3435.696 2502 C 3462.696 2514 3517.696 2520 3614.696 2524 C 3751.696 2529 3849.696 2546 3872.696 2569 C 3880.696 2577 3879.696 2588 3866.696 2609 C 3844.696 2647 3845.696 2668 3870.696 2726 C 3885.696 2763 3888.696 2780 3880.696 2797 C 3864.696 2831 3772.696 2899 3684.696 2941 C 3533.696 3014 3381.696 3040 3106.696 3040 L 2939.696 3040 L 2778.696 3120 C 2690.696 3165 2594.696 3210 2566.696 3221 C 2444.696 3270 2192.696 3297 2036.696 3280 Z M 2364.696 3247 C 2420.696 3240 2438.696 3235 2424.696 3229 C 2391.696 3216 2306.696 3220 2279.696 3235 C 2265.696 3243 2247.696 3249 2239.696 3249 C 2231.696 3250 2243.696 3241 2266.696 3230 C 2319.696 3206 2386.696 3161 2464.696 3097 C 2534.696 3039 2540.696 3030 2505.696 3030 C 2489.696 3030 2457.696 3048 2421.696 3077 C 2295.696 3180 2210.696 3220 2120.696 3220 C 2069.696 3220 1840.696 3178 1858.696 3172 C 1864.696 3170 1869.696 3152 1869.696 3131 L 1869.696 3094 L 1797.696 3106 C 1757.696 3113 1697.696 3120 1664.696 3120 C 1608.696 3121 1606.696 3122 1629.696 3134 C 1672.696 3158 1870.696 3221 1959.696 3240 C 2056.696 3261 2236.696 3264 2364.696 3247 Z M 1799.696 3083 C 1862.696 3075 1946.696 3062 1984.696 3054 C 2097.696 3030 2326.696 3021 2769.696 3020 C 3080.696 3020 3208.696 3016 3279.696 3005 C 3430.696 2982 3562.696 2931 3665.696 2855 L 3714.696 2819 L 3663.696 2867 C 3619.696 2909 3575.696 2936 3459.696 2988 C 3435.696 2999 3435.696 2999 3464.696 2994 C 3567.696 2975 3711.696 2909 3785.696 2849 C 3847.696 2797 3853.696 2786 3837.696 2752 C 3825.696 2728 3817.696 2724 3755.696 2718 C 3653.696 2708 3641.696 2703 3614.696 2660 C 3575.696 2598 3548.696 2617 3585.696 2680 C 3611.696 2722 3652.696 2741 3742.696 2749 L 3824.696 2757 L 3731.696 2759 C 3615.696 2760 3588.696 2748 3564.696 2686 C 3554.696 2661 3549.696 2634 3553.696 2625 C 3561.696 2604 3601.696 2590 3654.696 2590 C 3697.696 2590 3722.696 2569 3696.696 2553 C 3683.696 2545 3349.696 2535 3349.696 2543 C 3349.696 2546 3354.696 2561 3359.696 2576 C 3378.696 2626 3373.696 2733 3348.696 2789 C 3328.696 2837 3251.696 2920 3227.696 2920 C 3222.696 2920 3220.696 2923 3222.696 2928 C 3225.696 2932 3190.696 2936 3146.696 2938 C 3073.696 2941 3058.696 2938 3009.696 2913 C 2910.696 2862 2858.696 2757 2874.696 2638 L 2881.696 2587 L 2828.696 2594 C 2798.696 2598 2774.696 2602 2774.696 2603 C 2773.696 2604 2758.696 2652 2739.696 2709 C 2704.696 2818 2672.696 2868 2617.696 2896 C 2601.696 2904 2584.696 2921 2579.696 2933 C 2572.696 2952 2570.696 2952 2570.696 2936 C 2569.696 2921 2564.696 2919 2542.696 2925 C 2488.696 2939 2332.696 2949 2187.696 2950 C 2046.696 2950 2040.696 2951 2034.696 2971 C 2030.696 2983 2024.696 2989 2020.696 2984 C 2015.696 2976 1929.696 2970 1929.696 2978 C 1929.696 2979 1939.696 2985 1952.696 2990 C 1971.696 2999 1971.696 3000 1954.696 2997 C 1943.696 2996 1930.696 2985 1924.696 2972 C 1919.696 2960 1906.696 2950 1897.696 2950 C 1882.696 2950 1879.696 2960 1877.696 3008 L 1876.696 3065 L 1870.696 3005 L 1864.696 2945 L 1819.696 2939 C 1794.696 2935 1761.696 2927 1745.696 2921 C 1718.696 2910 1717.696 2907 1722.696 2865 C 1728.696 2808 1767.696 2748 1820.696 2713 C 1865.696 2684 1892.696 2681 2294.696 2661 C 2500.696 2651 2534.696 2646 2522.696 2627 C 2518.696 2620 2409.696 2619 2185.696 2622 C 1806.696 2628 1808.696 2628 2379.696 2600 C 2849.696 2577 2889.696 2573 2889.696 2558 C 2889.696 2552 2818.696 2550 2672.696 2555 C 2552.696 2558 2324.696 2565 2164.696 2570 C 1929.696 2577 1870.696 2576 1849.696 2565 C 1834.696 2558 1789.696 2550 1748.696 2549 L 1674.696 2547 L 1677.696 2576 C 1679.696 2592 1684.696 2611 1689.696 2619 C 1696.696 2632 1679.696 2733 1660.696 2782 C 1633.696 2853 1524.696 2930 1450.696 2930 C 1335.696 2930 1234.696 2841 1214.696 2722 L 1207.696 2678 L 1177.696 2707 C 1160.696 2722 1138.696 2754 1128.696 2777 C 1109.696 2818 1109.696 2819 1130.696 2875 C 1149.696 2926 1154.696 2972 1147.696 3040 C 1144.696 3063 1149.696 3065 1209.696 3077 C 1373.696 3109 1589.696 3111 1799.696 3083 Z M 2415.696 2915 C 2523.696 2898 2579.696 2877 2579.696 2852 C 2579.696 2839 2581.696 2838 2588.696 2848 C 2594.696 2858 2602.696 2854 2622.696 2831 C 2646.696 2802 2665.696 2762 2657.696 2755 C 2656.696 2753 2642.696 2754 2627.696 2757 C 2607.696 2761 2599.696 2769 2598.696 2784 C 2598.696 2804 2597.696 2804 2589.696 2782 C 2581.696 2763 2574.696 2760 2547.696 2764 C 2499.696 2772 2206.696 2791 2202.696 2786 C 2200.696 2784 2229.696 2779 2266.696 2776 C 2369.696 2766 2562.696 2739 2579.696 2733 C 2587.696 2730 2604.696 2726 2615.696 2724 C 2647.696 2720 2699.696 2691 2699.696 2678 C 2699.696 2664 2605.696 2676 2600.696 2691 C 2598.696 2699 2594.696 2699 2589.696 2690 C 2584.696 2681 2512.696 2680 2294.696 2686 C 2021.696 2693 2006.696 2694 1986.696 2714 C 1974.696 2726 1967.696 2731 1972.696 2726 C 1988.696 2704 1977.696 2698 1933.696 2703 C 1858.696 2711 1802.696 2765 1792.696 2838 C 1787.696 2879 1787.696 2880 1825.696 2896 C 1861.696 2911 1864.696 2911 1877.696 2893 C 1891.696 2876 1891.696 2876 1886.696 2893 C 1882.696 2904 1885.696 2913 1894.696 2916 C 1959.696 2941 2251.696 2940 2415.696 2915 Z M 1536.696 2838 C 1631.696 2781 1642.696 2648 1558.696 2568 C 1493.696 2506 1416.696 2505 1348.696 2567 C 1302.696 2609 1284.696 2657 1293.696 2718 C 1301.696 2775 1339.696 2827 1393.696 2851 C 1440.696 2872 1486.696 2868 1536.696 2838 Z M 3192.696 2856 C 3258.696 2829 3308.696 2736 3294.696 2667 C 3276.696 2581 3187.696 2512 3108.696 2523 C 3019.696 2535 2959.696 2605 2959.696 2694 C 2959.696 2759 2981.696 2804 3030.696 2839 C 3077.696 2874 3136.696 2880 3192.696 2856 Z M 3804.696 2610 C 3776.696 2598 3711.696 2598 3704.696 2610 C 3700.696 2616 3721.696 2620 3761.696 2619 C 3805.696 2619 3818.696 2616 3804.696 2610 Z M 3828.696 2580 C 3819.696 2575 3794.696 2568 3772.696 2564 C 3740.696 2559 3731.696 2561 3726.696 2574 C 3721.696 2588 3729.696 2590 3782.696 2590 C 3825.696 2589 3839.696 2587 3828.696 2580 Z M 2990.696 2503 C 3006.696 2493 3019.696 2482 3019.696 2478 C 3019.696 2474 2729.696 2470 2374.696 2470 C 2019.696 2470 1729.696 2472 1729.696 2475 C 1729.696 2477 1746.696 2488 1767.696 2499 C 1803.696 2518 1826.696 2519 2382.696 2520 C 2911.696 2520 2963.696 2519 2990.696 2503 Z" style="fill: rgb(65, 124, 238);"/>
    <path d="M1828 3163 c7 -3 16 -2 19 1 4 3 -2 6 -13 5 -11 0 -14 -3 -6 -6z" style="fill: rgb(65, 124, 238);"/>
    <path d="M1325 3069 c-33 -5 -66 -10 -74 -11 -8 -2 89 -2 215 -2 126 1 234 3 239 4 6 2 -12 6 -40 10 -66 11 -264 10 -340 -1z" style="fill: rgb(65, 124, 238);"/>
    <path d="M1198 3043 c6 -2 18 -2 25 0 6 3 1 5 -13 5 -14 0 -19 -2 -12 -5z" style="fill: rgb(65, 124, 238);"/>
    <path d="M2561 3005 c1 -19 18 -51 18 -35 0 8 -4 22 -9 30 -5 8 -9 11 -9 5z" style="fill: rgb(65, 124, 238);"/>
    <path d="M3350 2951 c0 -16 145 -109 188 -121 48 -13 122 -13 122 0 0 17 -121 90 -175 105 -79 22 -135 28 -135 16z m132 -50 c23 -17 65 -35 91 -40 70 -13 88 -36 22 -27 -53 6 -151 51 -200 91 l-30 24 37 -8 c20 -5 56 -22 80 -40z" style="fill: rgb(65, 124, 238);"/>
    <path d="M3290 2907 c0 -2 15 -16 33 -33 l32 -29 -29 33 c-28 30 -36 37 -36 29z" style="fill: rgb(65, 124, 238);"/>
    <path d="M1600 2897 c0 -2 15 -16 33 -33 l32 -29 -29 33 c-28 30 -36 37 -36 29z" style="fill: rgb(65, 124, 238);"/>
    <path d="M2939 2883 c-13 -16 -12 -17 4 -4 16 13 21 21 13 21 -2 0 -10 -8 -17 -17z" style="fill: rgb(65, 124, 238);"/>
    <path d="M2898 2863 c7 -3 16 -2 19 1 4 3 -2 6 -13 5 -11 0 -14 -3 -6 -6z" style="fill: rgb(65, 124, 238);"/>
    <path d="M1925 2810 c9 -16 18 -30 21 -30 2 0 -2 14 -11 30 -9 17 -18 30 -21 30 -2 0 2 -13 11 -30z" style="fill: rgb(65, 124, 238);"/>
    <path d="M1402 2830 c-39 -24 -69 -70 -77 -122 -5 -30 -1 -49 17 -85 30 -62 65 -86 122 -86 80 0 146 71 146 159 0 114 -117 189 -208 134z m65 -57 c-3 -10 -5 -4 -5 12 0 17 2 24 5 18 2 -7 2 -21 0 -30z m119 -22 c-4 -5 0 -12 6 -15 7 -3 2 -3 -11 0 -16 4 -21 2 -17 -5 5 -7 1 -8 -10 -4 -12 4 -15 3 -10 -5 8 -14 5 -15 -19 -6 -13 5 -7 11 22 25 46 21 45 21 39 10z m-172 -37 c7 -17 6 -17 -30 -1 -16 7 -30 18 -31 24 -4 17 54 -4 61 -23z m64 -40 c-19 -19 -38 -11 -38 16 0 24 21 31 40 14 12 -12 12 -16 -2 -30z m57 -74 c12 -23 12 -30 3 -28 -12 3 -58 60 -58 73 0 15 42 -19 55 -45z m-115 11 c-5 -10 -16 -21 -25 -25 -14 -5 -14 -2 0 25 9 16 20 27 25 24 7 -4 7 -13 0 -24z" style="fill: rgb(65, 124, 238);"/>
    <path d="M1510 2610 c6 -11 13 -20 16 -20 2 0 0 9 -6 20 -6 11 -13 20 -16 20 -2 0 0 -9 6 -20z" style="fill: rgb(65, 124, 238);"/>
    <path d="M3085 2846 c-113 -51 -128 -215 -26 -283 71 -48 173 -17 212 65 63 129 -60 274 -186 218z m42 -58 c-2 -13 -4 -5 -4 17 -1 22 1 32 4 23 2 -10 2 -28 0 -40z m20 -15 c-3 -10 -5 -2 -5 17 0 19 2 27 5 18 2 -10 2 -26 0 -35z m118 -23 c8 -13 -62 -43 -77 -34 -6 4 3 14 23 25 40 21 46 22 54 9z m-221 -6 c9 -3 13 -11 10 -16 -4 -6 1 -8 13 -4 13 4 20 2 20 -8 0 -8 -5 -12 -11 -10 -54 18 -66 25 -61 34 7 12 8 12 29 4z m120 -40 c8 -21 -1 -34 -24 -34 -22 0 -34 15 -26 35 7 20 42 19 50 -1z m70 -39 c-4 -17 -10 -23 -16 -17 -6 6 -6 18 2 32 15 28 23 20 14 -15z m-141 -57 c-29 -42 -29 -43 -39 -26 -5 7 -3 8 5 4 8 -5 11 -3 10 5 -5 20 18 56 34 56 11 0 9 -10 -10 -39z m89 24 c-3 -10 -1 -13 6 -8 6 3 14 1 18 -5 5 -8 3 -9 -6 -4 -8 5 -11 3 -8 -6 3 -8 10 -13 16 -12 6 2 9 -4 5 -13 -6 -17 -11 -13 -38 37 -11 21 -11 26 0 26 7 0 11 -7 7 -15z" style="fill: rgb(65, 124, 238);"/>
    <path d="M3230 2740 c-8 -5 -10 -10 -5 -10 6 0 17 5 25 10 8 5 11 10 5 10 -5 0 -17 -5 -25 -10z" style="fill: rgb(65, 124, 238);"/>
  </g>
</svg>