<?xml version="1.0" encoding="utf-8"?>
<svg version="1.0" width="285px" height="152px" viewBox="0 0 283.5 152" preserveAspectRatio="xMidYMid meet" xmlns="http://www.w3.org/2000/svg">
  <g transform="matrix(0.1, 0, 0, -0.1, -107.525003, 328.515203)" fill="#000000" stroke="none">
    <path d="M2047 3280 c-101 -12 -281 -60 -430 -116 -89 -33 -132 -44 -176 -44 -62 0 -276 -25 -303 -35 -24 -9 -28 -29 -13 -59 13 -24 11 -31 -12 -79 -35 -67 -36 -135 -6 -197 l23 -45 -21 -16 c-31 -23 -19 -36 80 -81 47 -22 92 -49 99 -60 8 -11 32 -33 55 -49 l40 -29 -84 0 c-58 0 -79 -3 -69 -10 17 -11 2225 -12 2335 0 l70 7 -95 2 c-52 1 -103 6 -114 10 -15 6 -12 10 20 23 27 12 82 18 179 22 137 5 235 22 258 45 8 8 7 19 -6 40 -22 38 -21 59 4 117 15 37 18 54 10 71 -16 34 -108 102 -196 144 -151 73 -303 99 -578 99 l-167 0 -161 80 c-88 45 -184 90 -212 101 -122 49 -374 76 -530 59z m328 -33 c56 -7 74 -12 60 -18 -33 -13 -118 -9 -145 6 -14 8 -32 14 -40 14 -8 1 4 -8 27 -19 53 -24 120 -69 198 -133 70 -58 76 -67 41 -67 -16 0 -48 18 -84 47 -126 103 -211 143 -301 143 -51 0 -280 -42 -262 -48 6 -2 11 -20 11 -41 l0 -37 -72 12 c-40 7 -100 14 -133 14 -56 1 -58 2 -35 14 43 24 241 87 330 106 97 21 277 24 405 7z m-565 -164 c63 -8 147 -21 185 -29 113 -24 342 -33 785 -34 311 0 439 -4 510 -15 151 -23 283 -74 386 -150 l49 -36 -51 48 c-44 42 -88 69 -204 121 -24 11 -24 11 5 6 103 -19 247 -85 321 -145 62 -52 68 -63 52 -97 -12 -24 -20 -28 -82 -34 -102 -10 -114 -15 -141 -58 -39 -62 -66 -43 -29 20 26 42 67 61 157 69 l82 8 -93 2 c-116 1 -143 -11 -167 -73 -10 -25 -15 -52 -11 -61 8 -21 48 -35 101 -35 43 0 68 -21 42 -37 -13 -8 -347 -18 -347 -10 0 3 5 18 10 33 19 50 14 157 -11 213 -20 48 -97 131 -121 131 -5 0 -7 3 -5 8 3 4 -32 8 -76 10 -73 3 -88 0 -137 -25 -99 -51 -151 -156 -135 -275 l7 -51 -53 7 c-30 4 -54 8 -54 9 -1 1 -16 49 -35 106 -35 109 -67 159 -122 187 -16 8 -33 25 -38 37 -7 19 -9 19 -9 3 -1 -15 -6 -17 -28 -11 -54 14 -210 24 -355 25 -141 0 -147 1 -153 21 -4 12 -10 18 -14 13 -5 -8 -91 -14 -91 -6 0 1 10 7 23 12 19 9 19 10 2 7 -11 -1 -24 -12 -30 -25 -5 -12 -18 -22 -27 -22 -15 0 -18 10 -20 58 l-1 57 -6 -60 -6 -60 -45 -6 c-25 -4 -58 -12 -74 -18 -27 -11 -28 -14 -23 -56 6 -57 45 -117 98 -152 45 -29 72 -32 474 -52 206 -10 240 -15 228 -34 -4 -7 -113 -8 -337 -5 -379 6 -377 6 194 -22 470 -23 510 -27 510 -42 0 -6 -71 -8 -217 -3 -120 3 -348 10 -508 15 -235 7 -294 6 -315 -5 -15 -7 -60 -15 -101 -16 l-74 -2 3 29 c2 16 7 35 12 43 7 13 -10 114 -29 163 -27 71 -136 148 -210 148 -115 0 -216 -89 -236 -208 l-7 -44 -30 29 c-17 15 -39 47 -49 70 -19 41 -19 42 2 98 19 51 24 97 17 165 -3 23 2 25 62 37 164 32 380 34 590 6z m616 -168 c108 -17 164 -38 164 -63 0 -13 2 -14 9 -4 6 10 14 6 34 -17 24 -29 43 -69 35 -76 -1 -2 -15 -1 -30 2 -20 4 -28 12 -29 27 0 20 -1 20 -9 -2 -8 -19 -15 -22 -42 -18 -48 8 -341 27 -345 22 -2 -2 27 -7 64 -10 103 -10 296 -37 313 -43 8 -3 25 -7 36 -9 32 -4 84 -33 84 -46 0 -14 -94 -2 -99 13 -2 8 -6 8 -11 -1 -5 -9 -77 -10 -295 -4 -273 7 -288 8 -308 28 -12 12 -19 17 -14 12 16 -22 5 -28 -39 -23 -75 8 -131 62 -141 135 -5 41 -5 42 33 58 36 15 39 15 52 -3 14 -17 14 -17 9 0 -4 11 -1 20 8 23 65 25 357 24 521 -1z m-879 -77 c95 -57 106 -190 22 -270 -65 -62 -142 -63 -210 -1 -46 42 -64 90 -55 151 8 57 46 109 100 133 47 21 93 17 143 -13z m1656 18 c66 -27 116 -120 102 -189 -18 -86 -107 -155 -186 -144 -89 12 -149 82 -149 171 0 65 22 110 71 145 47 35 106 41 162 17z m612 -246 c-28 -12 -93 -12 -100 0 -4 6 17 10 57 9 44 0 57 -3 43 -9z m24 -30 c-9 -5 -34 -12 -56 -16 -32 -5 -41 -3 -46 10 -5 14 3 16 56 16 43 -1 57 -3 46 -10z m-838 -77 c16 -10 29 -21 29 -25 0 -4 -290 -8 -645 -8 -355 0 -645 2 -645 5 0 2 17 13 38 24 36 19 59 20 615 21 529 0 581 -1 608 -17z" style="fill: rgb(65, 124, 238);"/>
    <path d="M1828 3163 c7 -3 16 -2 19 1 4 3 -2 6 -13 5 -11 0 -14 -3 -6 -6z" style="fill: rgb(65, 124, 238);"/>
    <path d="M1325 3069 c-33 -5 -66 -10 -74 -11 -8 -2 89 -2 215 -2 126 1 234 3 239 4 6 2 -12 6 -40 10 -66 11 -264 10 -340 -1z" style="fill: rgb(65, 124, 238);"/>
    <path d="M1198 3043 c6 -2 18 -2 25 0 6 3 1 5 -13 5 -14 0 -19 -2 -12 -5z" style="fill: rgb(65, 124, 238);"/>
    <path d="M2561 3005 c1 -19 18 -51 18 -35 0 8 -4 22 -9 30 -5 8 -9 11 -9 5z" style="fill: rgb(65, 124, 238);"/>
    <path d="M3350 2951 c0 -16 145 -109 188 -121 48 -13 122 -13 122 0 0 17 -121 90 -175 105 -79 22 -135 28 -135 16z m132 -50 c23 -17 65 -35 91 -40 70 -13 88 -36 22 -27 -53 6 -151 51 -200 91 l-30 24 37 -8 c20 -5 56 -22 80 -40z" style="fill: rgb(65, 124, 238);"/>
    <path d="M3290 2907 c0 -2 15 -16 33 -33 l32 -29 -29 33 c-28 30 -36 37 -36 29z" style="fill: rgb(65, 124, 238);"/>
    <path d="M1600 2897 c0 -2 15 -16 33 -33 l32 -29 -29 33 c-28 30 -36 37 -36 29z" style="fill: rgb(65, 124, 238);"/>
    <path d="M2939 2883 c-13 -16 -12 -17 4 -4 16 13 21 21 13 21 -2 0 -10 -8 -17 -17z" style="fill: rgb(65, 124, 238);"/>
    <path d="M2898 2863 c7 -3 16 -2 19 1 4 3 -2 6 -13 5 -11 0 -14 -3 -6 -6z" style="fill: rgb(65, 124, 238);"/>
    <path d="M1925 2810 c9 -16 18 -30 21 -30 2 0 -2 14 -11 30 -9 17 -18 30 -21 30 -2 0 2 -13 11 -30z" style="fill: rgb(65, 124, 238);"/>
    <path d="M1402 2830 c-39 -24 -69 -70 -77 -122 -5 -30 -1 -49 17 -85 30 -62 65 -86 122 -86 80 0 146 71 146 159 0 114 -117 189 -208 134z m65 -57 c-3 -10 -5 -4 -5 12 0 17 2 24 5 18 2 -7 2 -21 0 -30z m119 -22 c-4 -5 0 -12 6 -15 7 -3 2 -3 -11 0 -16 4 -21 2 -17 -5 5 -7 1 -8 -10 -4 -12 4 -15 3 -10 -5 8 -14 5 -15 -19 -6 -13 5 -7 11 22 25 46 21 45 21 39 10z m-172 -37 c7 -17 6 -17 -30 -1 -16 7 -30 18 -31 24 -4 17 54 -4 61 -23z m64 -40 c-19 -19 -38 -11 -38 16 0 24 21 31 40 14 12 -12 12 -16 -2 -30z m57 -74 c12 -23 12 -30 3 -28 -12 3 -58 60 -58 73 0 15 42 -19 55 -45z m-115 11 c-5 -10 -16 -21 -25 -25 -14 -5 -14 -2 0 25 9 16 20 27 25 24 7 -4 7 -13 0 -24z" style="fill: rgb(65, 124, 238);"/>
    <path d="M1510 2610 c6 -11 13 -20 16 -20 2 0 0 9 -6 20 -6 11 -13 20 -16 20 -2 0 0 -9 6 -20z" style="fill: rgb(65, 124, 238);"/>
    <path d="M3085 2846 c-113 -51 -128 -215 -26 -283 71 -48 173 -17 212 65 63 129 -60 274 -186 218z m42 -58 c-2 -13 -4 -5 -4 17 -1 22 1 32 4 23 2 -10 2 -28 0 -40z m20 -15 c-3 -10 -5 -2 -5 17 0 19 2 27 5 18 2 -10 2 -26 0 -35z m118 -23 c8 -13 -62 -43 -77 -34 -6 4 3 14 23 25 40 21 46 22 54 9z m-221 -6 c9 -3 13 -11 10 -16 -4 -6 1 -8 13 -4 13 4 20 2 20 -8 0 -8 -5 -12 -11 -10 -54 18 -66 25 -61 34 7 12 8 12 29 4z m120 -40 c8 -21 -1 -34 -24 -34 -22 0 -34 15 -26 35 7 20 42 19 50 -1z m70 -39 c-4 -17 -10 -23 -16 -17 -6 6 -6 18 2 32 15 28 23 20 14 -15z m-141 -57 c-29 -42 -29 -43 -39 -26 -5 7 -3 8 5 4 8 -5 11 -3 10 5 -5 20 18 56 34 56 11 0 9 -10 -10 -39z m89 24 c-3 -10 -1 -13 6 -8 6 3 14 1 18 -5 5 -8 3 -9 -6 -4 -8 5 -11 3 -8 -6 3 -8 10 -13 16 -12 6 2 9 -4 5 -13 -6 -17 -11 -13 -38 37 -11 21 -11 26 0 26 7 0 11 -7 7 -15z" style="fill: rgb(65, 124, 238);"/>
    <path d="M3230 2740 c-8 -5 -10 -10 -5 -10 6 0 17 5 25 10 8 5 11 10 5 10 -5 0 -17 -5 -25 -10z" style="fill: rgb(65, 124, 238);"/>
    <path d="M 2310 2317 C 2215 2284 2202 2129 2289 2077 C 2352 2040 2445 2064 2475 2126 C 2483 2144 2490 2167 2490 2179 C 2490 2198 2484 2200 2420 2200 C 2364 2200 2350 2197 2350 2185 C 2350 2173 2363 2170 2405 2170 C 2468 2170 2473 2161 2431 2119 C 2408 2097 2392 2090 2361 2090 C 2304 2090 2270 2122 2263 2181 C 2258 2222 2261 2231 2287 2260 C 2326 2304 2387 2306 2429 2266 C 2444 2252 2461 2240 2468 2240 C 2505 2240 2450 2306 2402 2320 C 2357 2332 2310 2317 2310 2317 Z" style="fill: rgb(65, 124, 238);"/>
    <path d="M 3474 2311 C 3351 2255 3392 2060 3527 2060 C 3604 2060 3644 2092 3661 2167 C 3661 2167 3672.01 2199.08 3668 2200 C 3654.201 2203.165 3593 2200 3593 2200 C 3538 2200 3522.235 2199.695 3522 2188 C 3521.828 2179.459 3548 2174 3578 2172 C 3607 2170 3630 2164 3630 2159 C 3630 2153 3617 2135 3601 2119 C 3543 2061 3450 2092 3435 2174 C 3416 2270 3535 2333 3604 2263 C 3618 2249 3636 2240 3645 2242 C 3660 2245 3659 2249 3639 2274 C 3616 2303 3565 2322.209 3533 2322.209 C 3523 2322.209 3497 2321 3474 2311 Z" style="fill: rgb(65, 124, 238);"/>
    <path d="M 1140 2232 C 1121 2184 1097 2126 1088 2103 C 1071 2062 1071 2060 1088 2060 C 1098 2060 1110 2072 1117 2090 C 1128 2119 1130 2120 1193 2120 C 1255 2120 1258 2119 1270 2090 C 1277 2074 1289 2060 1296 2060 C 1304 2060 1310 2063 1310 2066 C 1310 2069 1287 2127 1259 2196 C 1223 2284 1203 2320 1191 2320 C 1180 2320 1164 2293 1140 2232 Z M 1234 2172 C 1241 2151 1231.81 2152.397 1183.81 2152.397 C 1183.81 2152.397 1153.067 2147.606 1147.19 2154.793 C 1138.58 2165.321 1161 2202 1161 2202 C 1172 2231 1184 2258 1187 2264 C 1193 2273 1217 2226 1234 2172 Z" style="fill: rgb(65, 124, 238);"/>
    <path d="M1380 2190 l0 -130 80 0 c64 0 80 3 80 15 0 12 -13 15 -60 15 l-60 0 0 115 c0 108 -1 115 -20 115 -19 0 -20 -7 -20 -130z" style="fill: rgb(65, 124, 238);"/>
    <path d="M 1620 2190 C 1620 2081 1622 2060 1635 2060 C 1647 2060 1650 2073 1650 2115 L 1650 2170 L 1705 2170 C 1747 2170 1760 2173 1760 2185 C 1760 2197 1747 2200 1705 2200 L 1650 2200 L 1650 2245 L 1650 2289 L 1707 2292 C 1741 2294 1768.609 2287.816 1768 2308 C 1767.496 2324.682 1752 2324.653 1696 2324.653 C 1696 2324.653 1628.118 2328.656 1620 2320 C 1613.089 2312.631 1620 2190 1620 2190 Z" style="fill: rgb(65, 124, 238);"/>
    <path d="M1876 2203 c-27 -65 -51 -124 -53 -130 -3 -8 2 -13 12 -13 9 0 22 13 28 30 11 29 13 30 77 30 64 0 66 -1 77 -30 6 -17 19 -30 28 -30 10 0 15 5 12 13 -67 170 -103 247 -117 247 -11 0 -31 -36 -64 -117z m90 15 c10 -29 21 -56 22 -60 2 -4 -20 -8 -48 -8 -28 0 -50 4 -48 8 2 4 12 31 22 60 11 29 23 52 26 52 3 0 15 -23 26 -52z" style="fill: rgb(65, 124, 238);"/>
    <path d="M2620 2243 c-18 -43 -41 -98 -51 -122 -23 -52 -23 -61 -5 -61 7 0 19 14 26 30 12 29 15 30 77 30 63 0 65 -1 76 -30 7 -18 19 -30 29 -30 17 0 17 2 0 43 -9 23 -33 81 -52 129 -45 113 -57 114 -100 11z m79 -40 l21 -53 -50 0 c-28 0 -50 2 -50 4 0 19 45 115 51 109 4 -4 17 -32 28 -60z" style="fill: rgb(65, 124, 238);"/>
    <path d="M 2860 2190 C 2860 2081 2862 2060 2875 2060 C 2886 2060 2890 2072 2890 2104 C 2890 2129 2895 2152 2901 2155 C 2923 2169 2956 2149 2983 2105 C 3001 2077 3019 2060 3032 2060 C 3053 2060 3051 2066 3012 2119 L 2987 2152 L 3016 2175 C 3039 2194 3045 2205 3045 2240 C 3045 2301 3018 2320 2929 2320 C 2929 2320 2868.812 2323.216 2863.388 2318.563 C 2845.08 2302.856 2860 2190 2860 2190 Z M 3007 2260 C 3024 2226 3004 2198 2956 2187 C 2900 2173 2890 2182 2890 2240 C 2890 2240 2883.317 2270.243 2895.679 2281.913 C 2908.305 2293.831 2942 2288 2942 2288 C 2986 2285 2996 2281 3007 2260 Z" style="fill: rgb(65, 124, 238);"/>
    <path d="M3180 2243 c-18 -43 -41 -98 -51 -122 -23 -52 -23 -61 -5 -61 7 0 19 14 26 30 12 29 15 30 77 30 63 0 65 -1 76 -30 7 -18 19 -30 29 -30 17 0 17 2 0 43 -9 23 -33 81 -52 129 -45 113 -57 114 -100 11z m79 -40 l21 -53 -50 0 c-28 0 -50 2 -50 4 0 19 45 115 51 109 4 -4 17 -32 28 -60z" style="fill: rgb(65, 124, 238);"/>
    <path d="M 3746.962 2190 C 3746.962 2190 3738.817 2060 3750 2060 C 3757.344 2060 3830 2060 3830 2060 C 3894 2060 3910 2063 3910 2075 C 3910 2087 3896 2090 3845 2090 L 3780 2090 L 3780 2135 L 3780 2180 L 3840 2180 C 3887 2180 3900 2183 3900 2195 C 3900 2207 3887 2210 3840 2210 L 3780 2210 L 3780 2250 L 3780 2290 L 3845 2290 C 3896 2290 3910 2293 3910 2305 C 3910 2317 3894 2320 3830 2320 C 3830 2320 3776.199 2324.971 3750 2320 C 3742.424 2318.563 3746.962 2190 3746.962 2190 Z" style="fill: rgb(65, 124, 238);"/>
    <path d="M1546 1884 c-25 -24 -24 -68 1 -96 21 -23 65 -23 86 0 27 29 20 35 -12 11 -29 -21 -31 -21 -55 -5 -31 20 -34 56 -8 79 23 21 41 21 64 0 23 -21 35 -11 13 11 -21 20 -69 21 -89 0z" style="fill: rgb(65, 124, 238);"/>
    <path d="M1767 1838 c-24 -59 -27 -94 -6 -55 6 10 22 17 39 17 17 0 33 -7 39 -17 5 -10 12 -16 14 -13 7 7 -43 130 -53 130 -4 0 -19 -28 -33 -62z m47 10 c9 -35 8 -38 -14 -38 -11 0 -20 3 -20 8 0 19 13 52 20 52 4 0 10 -10 14 -22z" style="fill: rgb(65, 124, 238);"/>
    <path d="M2263 1884 c-8 -21 9 -48 33 -53 32 -6 46 -22 33 -37 -15 -18 -28 -18 -51 3 -16 14 -18 14 -18 0 0 -19 33 -31 66 -23 37 10 28 47 -16 67 -19 9 -35 23 -35 30 0 21 34 23 56 3 10 -9 19 -13 19 -8 0 33 -75 48 -87 18z" style="fill: rgb(65, 124, 238);"/>
    <path d="M 2446.48 1834.503 C 2446.48 1834.503 2443.905 1774.31 2447.154 1771.484 C 2449.51 1769.435 2503.838 1772.417 2503.838 1772.417 C 2527.271 1773.068 2533.476 1772.116 2533.617 1774.921 C 2534.086 1784.25 2524.28 1779.817 2514.506 1780.864 C 2487.506 1784.864 2470 1786 2470 1805 C 2470 1824 2482.08 1824.915 2503.8 1830.675 C 2503.8 1830.675 2535 1831.444 2535 1837 C 2535 1843.049 2503.8 1844.936 2503.8 1844.936 C 2475.8 1846.936 2470 1844 2470 1864 C 2470 1884 2476.534 1885.265 2503.534 1889.265 C 2518.834 1890.904 2535.837 1889.658 2535.862 1895.565 C 2535.898 1904.184 2517.767 1903.47 2501.439 1903.924 C 2501.439 1903.924 2454.608 1908.075 2450 1900 C 2444.65 1890.625 2446.48 1834.503 2446.48 1834.503 Z" style="fill: rgb(65, 124, 238);"/>
    <path d="M 2641 1833 C 2641.658 1807.983 2641.074 1780.93 2641.589 1776.749 C 2642.19 1771.87 2645.078 1768.379 2648.174 1772.936 C 2651.23 1777.434 2650.596 1792.458 2654.911 1801.416 C 2656.574 1804.868 2663.177 1813.489 2670.529 1813.986 C 2678.979 1814.558 2690.659 1811.372 2698.053 1800.28 C 2707.053 1786.28 2711.013 1772.936 2716.013 1772.936 C 2721.013 1772.936 2724 1781 2715 1794 C 2701 1815 2701 1819 2715 1830 C 2726.003 1839.116 2724.036 1849.419 2724.205 1859.26 C 2724.574 1880.726 2708.653 1900 2673 1900 C 2673 1900 2647.532 1901.178 2643.52 1896.187 C 2640.181 1892.033 2641 1833 2641 1833 Z M 2698 1881 C 2721 1867 2708 1835 2677 1832 C 2653 1829 2650 1832 2650 1859 C 2650 1891 2669 1900 2698 1881 Z" style="fill: rgb(65, 124, 238);"/>
    <path d="M2820 1893 c0 -19 46 -123 54 -120 6 2 56 111 56 124 0 2 -4 3 -8 3 -4 0 -16 -22 -26 -50 -10 -27 -21 -48 -25 -45 -4 2 -14 22 -21 45 -12 37 -30 63 -30 43z" style="fill: rgb(65, 124, 238);"/>
    <path d="M 3023.621 1834.309 C 3023.621 1796.309 3032.376 1772.824 3035.618 1772.936 C 3041.243 1773.131 3045.675 1823.434 3045.758 1835.04 C 3045.857 1848.971 3040.643 1899.824 3034.695 1899.44 C 3031.083 1899.207 3023.621 1873.309 3023.621 1834.309 Z" style="fill: rgb(65, 124, 238);"/>
    <path d="M 3169.912 1892.672 C 3135.912 1872.672 3138.912 1804.672 3174.912 1780.672 C 3194.912 1766.672 3237.912 1772.672 3253.912 1790.672 C 3280.912 1819.672 3273.912 1825.672 3241.912 1801.672 C 3212.912 1780.672 3210.912 1780.672 3186.912 1796.672 C 3170.912 1806.672 3160.912 1822.672 3160.912 1837.672 C 3160.912 1883.672 3213.912 1910.672 3240.912 1877.672 C 3247.912 1869.672 3257.912 1862.672 3263.912 1862.672 C 3268.912 1862.672 3265.912 1871.672 3255.912 1882.672 C 3236.912 1903.672 3196.912 1908.672 3169.912 1892.672 Z" style="fill: rgb(65, 124, 238);"/>
    <path d="M 3345.718 1828.89 C 3345.718 1828.89 3343.143 1768.697 3346.392 1765.871 C 3348.748 1763.822 3403.076 1766.804 3403.076 1766.804 C 3426.509 1767.455 3432.714 1766.503 3432.855 1769.308 C 3433.324 1778.637 3423.518 1774.204 3413.744 1775.251 C 3386.744 1779.251 3369.238 1780.387 3369.238 1799.387 C 3369.238 1818.387 3381.318 1819.302 3403.038 1825.062 C 3403.038 1825.062 3434.238 1825.831 3434.238 1831.387 C 3434.238 1837.436 3403.038 1839.323 3403.038 1839.323 C 3375.038 1841.323 3369.238 1838.387 3369.238 1858.387 C 3369.238 1878.387 3375.772 1879.652 3402.772 1883.652 C 3418.072 1885.291 3435.075 1884.045 3435.1 1889.952 C 3435.136 1898.571 3417.005 1897.857 3400.677 1898.311 C 3400.677 1898.311 3353.846 1902.462 3349.238 1894.387 C 3343.888 1885.012 3345.718 1828.89 3345.718 1828.89 Z" style="fill: rgb(65, 124, 238);"/>
    <path d="M 1974.621 1837.87 C 1975.279 1812.853 1974.695 1785.8 1975.21 1781.619 C 1975.811 1776.74 1978.699 1773.249 1981.795 1777.806 C 1984.851 1782.304 1984.217 1797.328 1988.532 1806.286 C 1990.195 1809.738 1996.798 1818.359 2004.15 1818.856 C 2012.6 1819.428 2024.28 1816.242 2031.674 1805.15 C 2040.674 1791.15 2044.634 1777.806 2049.634 1777.806 C 2054.634 1777.806 2057.621 1785.87 2048.621 1798.87 C 2034.621 1819.87 2034.621 1823.87 2048.621 1834.87 C 2059.624 1843.986 2057.657 1854.289 2057.826 1864.13 C 2058.195 1885.596 2042.274 1904.87 2006.621 1904.87 C 2006.621 1904.87 1981.153 1906.048 1977.141 1901.057 C 1973.802 1896.903 1974.621 1837.87 1974.621 1837.87 Z M 2031.621 1885.87 C 2054.621 1871.87 2041.621 1839.87 2010.621 1836.87 C 1986.621 1833.87 1983.621 1836.87 1983.621 1863.87 C 1983.621 1895.87 2002.621 1904.87 2031.621 1885.87 Z" style="fill: rgb(65, 124, 238);"/>
  </g>
</svg>