<?xml version="1.0" encoding="utf-8"?>
<svg viewBox="0 95.957 283.475 48.625" xmlns="http://www.w3.org/2000/svg">
  <g transform="matrix(0.10000000149011612, 0, 0, -0.10000000149011612, -107.52500312812631, 328.5152026491643)" fill="#000000" stroke="none">
    <path d="M 2310 2317 C 2215 2284 2202 2129 2289 2077 C 2352 2040 2445 2064 2475 2126 C 2483 2144 2490 2167 2490 2179 C 2490 2198 2484 2200 2420 2200 C 2364 2200 2350 2197 2350 2185 C 2350 2173 2363 2170 2405 2170 C 2468 2170 2473 2161 2431 2119 C 2408 2097 2392 2090 2361 2090 C 2304 2090 2270 2122 2263 2181 C 2258 2222 2261 2231 2287 2260 C 2326 2304 2387 2306 2429 2266 C 2444 2252 2461 2240 2468 2240 C 2505 2240 2450 2306 2402 2320 C 2357 2332 2310 2317 2310 2317 Z" style="fill: rgb(65, 124, 238);"/>
    <path d="M 3474 2311 C 3351 2255 3392 2060 3527 2060 C 3604 2060 3644 2092 3661 2167 C 3661 2167 3672.01 2199.08 3668 2200 C 3654.201 2203.165 3593 2200 3593 2200 C 3538 2200 3522.235 2199.695 3522 2188 C 3521.828 2179.459 3548 2174 3578 2172 C 3607 2170 3630 2164 3630 2159 C 3630 2153 3617 2135 3601 2119 C 3543 2061 3450 2092 3435 2174 C 3416 2270 3535 2333 3604 2263 C 3618 2249 3636 2240 3645 2242 C 3660 2245 3659 2249 3639 2274 C 3616 2303 3565 2322.209 3533 2322.209 C 3523 2322.209 3497 2321 3474 2311 Z" style="fill: rgb(65, 124, 238);"/>
    <path d="M 1140 2232 C 1121 2184 1097 2126 1088 2103 C 1071 2062 1071 2060 1088 2060 C 1098 2060 1110 2072 1117 2090 C 1128 2119 1130 2120 1193 2120 C 1255 2120 1258 2119 1270 2090 C 1277 2074 1289 2060 1296 2060 C 1304 2060 1310 2063 1310 2066 C 1310 2069 1287 2127 1259 2196 C 1223 2284 1203 2320 1191 2320 C 1180 2320 1164 2293 1140 2232 Z M 1234 2172 C 1241 2151 1231.81 2152.397 1183.81 2152.397 C 1183.81 2152.397 1153.067 2147.606 1147.19 2154.793 C 1138.58 2165.321 1161 2202 1161 2202 C 1172 2231 1184 2258 1187 2264 C 1193 2273 1217 2226 1234 2172 Z" style="fill: rgb(65, 124, 238);"/>
    <path d="M1380 2190 l0 -130 80 0 c64 0 80 3 80 15 0 12 -13 15 -60 15 l-60 0 0 115 c0 108 -1 115 -20 115 -19 0 -20 -7 -20 -130z" style="fill: rgb(65, 124, 238);"/>
    <path d="M 1620 2190 C 1620 2081 1622 2060 1635 2060 C 1647 2060 1650 2073 1650 2115 L 1650 2170 L 1705 2170 C 1747 2170 1760 2173 1760 2185 C 1760 2197 1747 2200 1705 2200 L 1650 2200 L 1650 2245 L 1650 2289 L 1707 2292 C 1741 2294 1768.609 2287.816 1768 2308 C 1767.496 2324.682 1752 2324.653 1696 2324.653 C 1696 2324.653 1628.118 2328.656 1620 2320 C 1613.089 2312.631 1620 2190 1620 2190 Z" style="fill: rgb(65, 124, 238);"/>
    <path d="M1876 2203 c-27 -65 -51 -124 -53 -130 -3 -8 2 -13 12 -13 9 0 22 13 28 30 11 29 13 30 77 30 64 0 66 -1 77 -30 6 -17 19 -30 28 -30 10 0 15 5 12 13 -67 170 -103 247 -117 247 -11 0 -31 -36 -64 -117z m90 15 c10 -29 21 -56 22 -60 2 -4 -20 -8 -48 -8 -28 0 -50 4 -48 8 2 4 12 31 22 60 11 29 23 52 26 52 3 0 15 -23 26 -52z" style="fill: rgb(65, 124, 238);"/>
    <path d="M2620 2243 c-18 -43 -41 -98 -51 -122 -23 -52 -23 -61 -5 -61 7 0 19 14 26 30 12 29 15 30 77 30 63 0 65 -1 76 -30 7 -18 19 -30 29 -30 17 0 17 2 0 43 -9 23 -33 81 -52 129 -45 113 -57 114 -100 11z m79 -40 l21 -53 -50 0 c-28 0 -50 2 -50 4 0 19 45 115 51 109 4 -4 17 -32 28 -60z" style="fill: rgb(65, 124, 238);"/>
    <path d="M 2860 2190 C 2860 2081 2862 2060 2875 2060 C 2886 2060 2890 2072 2890 2104 C 2890 2129 2895 2152 2901 2155 C 2923 2169 2956 2149 2983 2105 C 3001 2077 3019 2060 3032 2060 C 3053 2060 3051 2066 3012 2119 L 2987 2152 L 3016 2175 C 3039 2194 3045 2205 3045 2240 C 3045 2301 3018 2320 2929 2320 C 2929 2320 2868.812 2323.216 2863.388 2318.563 C 2845.08 2302.856 2860 2190 2860 2190 Z M 3007 2260 C 3024 2226 3004 2198 2956 2187 C 2900 2173 2890 2182 2890 2240 C 2890 2240 2883.317 2270.243 2895.679 2281.913 C 2908.305 2293.831 2942 2288 2942 2288 C 2986 2285 2996 2281 3007 2260 Z" style="fill: rgb(65, 124, 238);"/>
    <path d="M3180 2243 c-18 -43 -41 -98 -51 -122 -23 -52 -23 -61 -5 -61 7 0 19 14 26 30 12 29 15 30 77 30 63 0 65 -1 76 -30 7 -18 19 -30 29 -30 17 0 17 2 0 43 -9 23 -33 81 -52 129 -45 113 -57 114 -100 11z m79 -40 l21 -53 -50 0 c-28 0 -50 2 -50 4 0 19 45 115 51 109 4 -4 17 -32 28 -60z" style="fill: rgb(65, 124, 238);"/>
    <path d="M 3746.962 2190 C 3746.962 2190 3738.817 2060 3750 2060 C 3757.344 2060 3830 2060 3830 2060 C 3894 2060 3910 2063 3910 2075 C 3910 2087 3896 2090 3845 2090 L 3780 2090 L 3780 2135 L 3780 2180 L 3840 2180 C 3887 2180 3900 2183 3900 2195 C 3900 2207 3887 2210 3840 2210 L 3780 2210 L 3780 2250 L 3780 2290 L 3845 2290 C 3896 2290 3910 2293 3910 2305 C 3910 2317 3894 2320 3830 2320 C 3830 2320 3776.199 2324.971 3750 2320 C 3742.424 2318.563 3746.962 2190 3746.962 2190 Z" style="fill: rgb(65, 124, 238);"/>
    <path d="M 1558.257 1958.178 C 1533.257 1934.178 1534.257 1890.178 1559.257 1862.178 C 1580.257 1839.178 1624.257 1839.178 1645.257 1862.178 C 1672.257 1891.178 1665.257 1897.178 1633.257 1873.178 C 1604.257 1852.178 1602.257 1852.178 1578.257 1868.178 C 1547.257 1888.178 1544.257 1924.178 1570.257 1947.178 C 1593.257 1968.178 1611.257 1968.178 1634.257 1947.178 C 1657.257 1926.178 1669.257 1936.178 1647.257 1958.178 C 1626.257 1978.178 1578.257 1979.178 1558.257 1958.178 Z" style="fill: rgb(65, 124, 238);"/>
    <path d="M 1779.257 1912.178 C 1755.257 1853.178 1752.257 1818.178 1773.257 1857.178 C 1779.257 1867.178 1795.257 1874.178 1812.257 1874.178 C 1829.257 1874.178 1845.257 1867.178 1851.257 1857.178 C 1856.257 1847.178 1863.257 1841.178 1865.257 1844.178 C 1872.257 1851.178 1822.257 1974.178 1812.257 1974.178 C 1808.257 1974.178 1793.257 1946.178 1779.257 1912.178 Z M 1826.257 1922.178 C 1835.257 1887.178 1834.257 1884.178 1812.257 1884.178 C 1801.257 1884.178 1792.257 1887.178 1792.257 1892.178 C 1792.257 1911.178 1805.257 1944.178 1812.257 1944.178 C 1816.257 1944.178 1822.257 1934.178 1826.257 1922.178 Z" style="fill: rgb(65, 124, 238);"/>
    <path d="M 2275.257 1958.178 C 2267.257 1937.178 2284.257 1910.178 2308.257 1905.178 C 2340.257 1899.178 2354.257 1883.178 2341.257 1868.178 C 2326.257 1850.178 2313.257 1850.178 2290.257 1871.178 C 2274.257 1885.178 2272.257 1885.178 2272.257 1871.178 C 2272.257 1852.178 2305.257 1840.178 2338.257 1848.178 C 2375.257 1858.178 2366.257 1895.178 2322.257 1915.178 C 2303.257 1924.178 2287.257 1938.178 2287.257 1945.178 C 2287.257 1966.178 2321.257 1968.178 2343.257 1948.178 C 2353.257 1939.178 2362.257 1935.178 2362.257 1940.178 C 2362.257 1973.178 2287.257 1988.178 2275.257 1958.178 Z" style="fill: rgb(65, 124, 238);"/>
    <path d="M 2458.737 1908.681 C 2458.737 1908.681 2456.162 1848.488 2459.411 1845.662 C 2461.767 1843.613 2516.095 1846.595 2516.095 1846.595 C 2539.528 1847.246 2545.733 1846.294 2545.874 1849.099 C 2546.343 1858.428 2536.537 1853.995 2526.763 1855.042 C 2499.763 1859.042 2482.257 1860.178 2482.257 1879.178 C 2482.257 1898.178 2494.337 1899.093 2516.057 1904.853 C 2516.057 1904.853 2547.257 1905.622 2547.257 1911.178 C 2547.257 1917.227 2516.057 1919.114 2516.057 1919.114 C 2488.057 1921.114 2482.257 1918.178 2482.257 1938.178 C 2482.257 1958.178 2488.791 1959.443 2515.791 1963.443 C 2531.091 1965.082 2548.094 1963.836 2548.119 1969.743 C 2548.155 1978.362 2530.024 1977.648 2513.696 1978.102 C 2513.696 1978.102 2466.865 1982.253 2462.257 1974.178 C 2456.907 1964.803 2458.737 1908.681 2458.737 1908.681 Z" style="fill: rgb(65, 124, 238);"/>
    <path d="M 2653.257 1907.178 C 2653.915 1882.161 2653.331 1855.108 2653.846 1850.927 C 2654.447 1846.048 2657.335 1842.557 2660.431 1847.114 C 2663.487 1851.612 2662.853 1866.636 2667.168 1875.594 C 2668.831 1879.046 2675.434 1887.667 2682.786 1888.164 C 2691.236 1888.736 2702.916 1885.55 2710.31 1874.458 C 2719.31 1860.458 2723.27 1847.114 2728.27 1847.114 C 2733.27 1847.114 2736.257 1855.178 2727.257 1868.178 C 2713.257 1889.178 2713.257 1893.178 2727.257 1904.178 C 2738.26 1913.294 2736.293 1923.597 2736.462 1933.438 C 2736.831 1954.904 2720.91 1974.178 2685.257 1974.178 C 2685.257 1974.178 2659.789 1975.356 2655.777 1970.365 C 2652.438 1966.211 2653.257 1907.178 2653.257 1907.178 Z M 2710.257 1955.178 C 2733.257 1941.178 2720.257 1909.178 2689.257 1906.178 C 2665.257 1903.178 2662.257 1906.178 2662.257 1933.178 C 2662.257 1965.178 2681.257 1974.178 2710.257 1955.178 Z" style="fill: rgb(65, 124, 238);"/>
    <path d="M 2832.257 1967.178 C 2832.257 1948.178 2878.257 1844.178 2886.257 1847.178 C 2892.257 1849.178 2942.257 1958.178 2942.257 1971.178 C 2942.257 1973.178 2938.257 1974.178 2934.257 1974.178 C 2930.257 1974.178 2918.257 1952.178 2908.257 1924.178 C 2898.257 1897.178 2887.257 1876.178 2883.257 1879.178 C 2879.257 1881.178 2869.257 1901.178 2862.257 1924.178 C 2850.257 1961.178 2832.257 1987.178 2832.257 1967.178 Z" style="fill: rgb(65, 124, 238);"/>
    <path d="M 3035.878 1908.487 C 3035.878 1870.487 3044.633 1847.002 3047.875 1847.114 C 3053.5 1847.309 3057.932 1897.612 3058.015 1909.218 C 3058.114 1923.149 3052.9 1974.002 3046.952 1973.618 C 3043.34 1973.385 3035.878 1947.487 3035.878 1908.487 Z" style="fill: rgb(65, 124, 238);"/>
    <path d="M 3182.169 1966.85 C 3148.169 1946.85 3151.169 1878.85 3187.169 1854.85 C 3207.169 1840.85 3250.169 1846.85 3266.169 1864.85 C 3293.169 1893.85 3286.169 1899.85 3254.169 1875.85 C 3225.169 1854.85 3223.169 1854.85 3199.169 1870.85 C 3183.169 1880.85 3173.169 1896.85 3173.169 1911.85 C 3173.169 1957.85 3226.169 1984.85 3253.169 1951.85 C 3260.169 1943.85 3270.169 1936.85 3276.169 1936.85 C 3281.169 1936.85 3278.169 1945.85 3268.169 1956.85 C 3249.169 1977.85 3209.169 1982.85 3182.169 1966.85 Z" style="fill: rgb(65, 124, 238);"/>
    <path d="M 3357.975 1903.068 C 3357.975 1903.068 3355.4 1842.875 3358.649 1840.049 C 3361.005 1838 3415.333 1840.982 3415.333 1840.982 C 3438.766 1841.633 3444.971 1840.681 3445.112 1843.486 C 3445.581 1852.815 3435.775 1848.382 3426.001 1849.429 C 3399.001 1853.429 3381.495 1854.565 3381.495 1873.565 C 3381.495 1892.565 3393.575 1893.48 3415.295 1899.24 C 3415.295 1899.24 3446.495 1900.009 3446.495 1905.565 C 3446.495 1911.614 3415.295 1913.501 3415.295 1913.501 C 3387.295 1915.501 3381.495 1912.565 3381.495 1932.565 C 3381.495 1952.565 3388.029 1953.83 3415.029 1957.83 C 3430.329 1959.469 3447.332 1958.223 3447.357 1964.13 C 3447.393 1972.749 3429.262 1972.035 3412.934 1972.489 C 3412.934 1972.489 3366.103 1976.64 3361.495 1968.565 C 3356.145 1959.19 3357.975 1903.068 3357.975 1903.068 Z" style="fill: rgb(65, 124, 238);"/>
    <path d="M 1986.878 1912.048 C 1987.536 1887.031 1986.952 1859.978 1987.467 1855.797 C 1988.068 1850.918 1990.956 1847.427 1994.052 1851.984 C 1997.108 1856.482 1996.474 1871.506 2000.789 1880.464 C 2002.452 1883.916 2009.055 1892.537 2016.407 1893.034 C 2024.857 1893.606 2036.537 1890.42 2043.931 1879.328 C 2052.931 1865.328 2056.891 1851.984 2061.891 1851.984 C 2066.891 1851.984 2069.878 1860.048 2060.878 1873.048 C 2046.878 1894.048 2046.878 1898.048 2060.878 1909.048 C 2071.881 1918.164 2069.914 1928.467 2070.083 1938.308 C 2070.452 1959.774 2054.531 1979.048 2018.878 1979.048 C 2018.878 1979.048 1993.41 1980.226 1989.398 1975.235 C 1986.059 1971.081 1986.878 1912.048 1986.878 1912.048 Z M 2043.878 1960.048 C 2066.878 1946.048 2053.878 1914.048 2022.878 1911.048 C 1998.878 1908.048 1995.878 1911.048 1995.878 1938.048 C 1995.878 1970.048 2014.878 1979.048 2043.878 1960.048 Z" style="fill: rgb(65, 124, 238);"/>
  </g>
</svg>