<?xml version="1.0" encoding="utf-8"?>
<svg viewBox="115.541 95.957 167.934 26.612" xmlns="http://www.w3.org/2000/svg">
  <g transform="matrix(0.10000000149011612, 0, 0, -0.10000000149011612, -107.52500312812631, 328.5152026491643)" fill="#000000" stroke="none">
    <path d="M 2310 2317 C 2215 2284 2202 2129 2289 2077 C 2352 2040 2445 2064 2475 2126 C 2483 2144 2490 2167 2490 2179 C 2490 2198 2484 2200 2420 2200 C 2364 2200 2350 2197 2350 2185 C 2350 2173 2363 2170 2405 2170 C 2468 2170 2473 2161 2431 2119 C 2408 2097 2392 2090 2361 2090 C 2304 2090 2270 2122 2263 2181 C 2258 2222 2261 2231 2287 2260 C 2326 2304 2387 2306 2429 2266 C 2444 2252 2461 2240 2468 2240 C 2505 2240 2450 2306 2402 2320 C 2357 2332 2310 2317 2310 2317 Z" style="fill: rgb(65, 124, 238);"/>
    <path d="M 3474 2311 C 3351 2255 3392 2060 3527 2060 C 3604 2060 3644 2092 3661 2167 C 3661 2167 3672.01 2199.08 3668 2200 C 3654.201 2203.165 3593 2200 3593 2200 C 3538 2200 3522.235 2199.695 3522 2188 C 3521.828 2179.459 3548 2174 3578 2172 C 3607 2170 3630 2164 3630 2159 C 3630 2153 3617 2135 3601 2119 C 3543 2061 3450 2092 3435 2174 C 3416 2270 3535 2333 3604 2263 C 3618 2249 3636 2240 3645 2242 C 3660 2245 3659 2249 3639 2274 C 3616 2303 3565 2322.209 3533 2322.209 C 3523 2322.209 3497 2321 3474 2311 Z" style="fill: rgb(65, 124, 238);"/>
    <path d="M2620 2243 c-18 -43 -41 -98 -51 -122 -23 -52 -23 -61 -5 -61 7 0 19 14 26 30 12 29 15 30 77 30 63 0 65 -1 76 -30 7 -18 19 -30 29 -30 17 0 17 2 0 43 -9 23 -33 81 -52 129 -45 113 -57 114 -100 11z m79 -40 l21 -53 -50 0 c-28 0 -50 2 -50 4 0 19 45 115 51 109 4 -4 17 -32 28 -60z" style="fill: rgb(65, 124, 238);"/>
    <path d="M 2860 2190 C 2860 2081 2862 2060 2875 2060 C 2886 2060 2890 2072 2890 2104 C 2890 2129 2895 2152 2901 2155 C 2923 2169 2956 2149 2983 2105 C 3001 2077 3019 2060 3032 2060 C 3053 2060 3051 2066 3012 2119 L 2987 2152 L 3016 2175 C 3039 2194 3045 2205 3045 2240 C 3045 2301 3018 2320 2929 2320 C 2929 2320 2868.812 2323.216 2863.388 2318.563 C 2845.08 2302.856 2860 2190 2860 2190 Z M 3007 2260 C 3024 2226 3004 2198 2956 2187 C 2900 2173 2890 2182 2890 2240 C 2890 2240 2883.317 2270.243 2895.679 2281.913 C 2908.305 2293.831 2942 2288 2942 2288 C 2986 2285 2996 2281 3007 2260 Z" style="fill: rgb(65, 124, 238);"/>
    <path d="M3180 2243 c-18 -43 -41 -98 -51 -122 -23 -52 -23 -61 -5 -61 7 0 19 14 26 30 12 29 15 30 77 30 63 0 65 -1 76 -30 7 -18 19 -30 29 -30 17 0 17 2 0 43 -9 23 -33 81 -52 129 -45 113 -57 114 -100 11z m79 -40 l21 -53 -50 0 c-28 0 -50 2 -50 4 0 19 45 115 51 109 4 -4 17 -32 28 -60z" style="fill: rgb(65, 124, 238);"/>
    <path d="M 3746.962 2190 C 3746.962 2190 3738.817 2060 3750 2060 C 3757.344 2060 3830 2060 3830 2060 C 3894 2060 3910 2063 3910 2075 C 3910 2087 3896 2090 3845 2090 L 3780 2090 L 3780 2135 L 3780 2180 L 3840 2180 C 3887 2180 3900 2183 3900 2195 C 3900 2207 3887 2210 3840 2210 L 3780 2210 L 3780 2250 L 3780 2290 L 3845 2290 C 3896 2290 3910 2293 3910 2305 C 3910 2317 3894 2320 3830 2320 C 3830 2320 3776.199 2324.971 3750 2320 C 3742.424 2318.563 3746.962 2190 3746.962 2190 Z" style="fill: rgb(65, 124, 238);"/>
  </g>
</svg>