<?xml version="1.0" encoding="utf-8"?>
<svg viewBox="182 264.745 139.411 37.255" xmlns="http://www.w3.org/2000/svg">
  <g transform="matrix(0.10000000149011612, 0, 0, -0.10000000149011612, 7.105427357601002e-15, 500)" fill="#000000" stroke="none">
    <path d="M 1820 2246 C 1820 2143 1829.286 2008.771 1852.286 1993.771 C 1872.286 1980.771 1953.64 1983.705 1953.64 1999.705 C 1953.64 2007.705 1941.758 2020.034 1937.758 2020.034 C 1922.446 2020.528 1883.344 2009.813 1865.424 2028.036 C 1847.065 2046.706 1852.53 2176.345 1850 2231 C 1847 2308 1841 2345 1833 2348 C 1823 2351 1820 2326 1820 2246 Z" style="fill: rgb(65, 124, 238);"/>
    <path d="M 2128 2338 C 2128 2331 2127 2281 2126 2227 C 2125.374 2170.653 2118.739 2045.352 2096.35 2030.099 C 2082.979 2020.99 2051.506 2019.597 2044.028 2013.24 C 2028.676 2000.873 1997.279 2003.39 2009.023 1998.061 C 2024.816 1990.893 2090.771 1979.017 2114.286 1987.62 C 2154.286 2003.62 2170 2183 2154 2304 C 2148 2346 2132 2367 2128 2338 Z" style="fill: rgb(65, 124, 238);"/>
    <path d="M 2234 2339 C 2224 2322 2216.286 2082.771 2223.286 2031.771 C 2227.286 2003.771 2235.286 1985.771 2241.286 1987.771 C 2249.286 1990.771 2255 2125 2257 2213 C 2259 2339 2254 2370 2234 2339 Z" style="fill: rgb(65, 124, 238);"/>
    <path d="M2716 2335 c-11 -29 -7 -253 5 -260 6 -4 12 -5 14 -4 2 2 5 64 6 138 2 91 0 136 -8 138 -6 2 -13 -3 -17 -12z" style="fill: rgb(65, 124, 238);"/>
    <path d="M 2965.269 2337.549 C 2961.269 2328.549 2961.269 2274.549 2963.269 2217.549 C 2968.269 2106.549 2982.269 2072.549 3023.269 2072.549 C 3047.269 2072.549 3214.569 2097.469 3021.269 2114.474 C 3000.54 2116.298 3000.269 2143.549 2995.269 2235.549 C 2988.269 2338.549 2978.269 2372.549 2965.269 2337.549 M 3148.269 2321.549 C 3116.269 2295.549 3081.269 2246.549 3081.269 2228.549 C 3081.269 2225.549 3098.269 2214.549 3120.269 2203.549 C 3141.269 2192.549 3162.269 2175.549 3165.269 2165.549 C 3175.269 2141.549 3142.346 2098.994 3091.269 2107.549 C 3056.055 2113.447 2956.161 2079.327 3022.431 2071.849 C 3088.701 2064.371 3157.043 2076.018 3181.043 2100.018 C 3215.043 2134.018 3207.269 2170.549 3160.269 2213.549 L 3120.269 2250.549 L 3170.269 2293.549 C 3217.269 2333.549 3226.269 2352.549 3198.269 2352.549 C 3191.269 2352.549 3169.269 2338.549 3148.269 2321.549" style="fill: rgb(65, 124, 238);"/>
    <path d="M 1970.45 2211.909 C 1967.45 2205.909 1968.45 2196.909 1974.45 2190.909 C 1987.45 2177.909 2006.45 2188.909 2006.45 2208.909 C 2006.45 2224.909 1980.45 2227.909 1970.45 2211.909 Z" style="fill: rgb(65, 124, 238);"/>
    <path d="M2452 2248 c-23 -23 -13 -37 27 -36 22 0 49 -6 61 -15 l21 -15 -25 -6 c-13 -3 -41 -22 -62 -41 -33 -31 -36 -39 -31 -72 9 -55 46 -83 108 -83 37 0 49 4 49 15 0 11 -11 15 -38 15 -49 0 -82 23 -82 59 0 45 53 81 123 84 23 1 42 7 41 12 -1 12 -121 80 -156 88 -14 4 -30 1 -36 -5z" style="fill: rgb(65, 124, 238);"/>
    <path d="M 1942.45 2130.909 C 1922.45 2102.909 1922.45 2094.909 1940.45 2060.909 C 1954.45 2033.909 1957.286 2025.771 1933.286 2019.771 C 1920.286 2016.771 1909.286 2006.771 1909.286 1998.771 C 1909.286 1986.771 1916.286 1984.771 1942.286 1989.771 C 1987.286 1998.771 1999.286 1998.771 2037.286 1990.771 C 2063.286 1984.771 2077.101 1999.915 2077.101 2012.915 C 2077.101 2020.915 2058.286 2017.771 2045.286 2021.771 C 2022.286 2026.771 2019.45 2035.909 2033.45 2061.909 C 2047.45 2084.909 2047.45 2092.909 2035.45 2117.909 C 2016.45 2157.909 1966.45 2164.909 1942.45 2130.909 Z M 2004.45 2090.909 C 2000.45 2052.909 1982.45 2043.909 1966.45 2072.909 C 1957.45 2088.909 1958.45 2097.909 1967.45 2108.909 C 1988.45 2134.909 2008.45 2125.909 2004.45 2090.909 Z" style="fill: rgb(65, 124, 238);"/>
    <path d="M2852 2160 c0 -83 -17 -115 -64 -128 -37 -9 -50 -32 -19 -32 33 0 88 26 99 47 21 39 19 183 -2 183 -11 0 -14 -16 -14 -70z" style="fill: rgb(65, 124, 238);"/>
    <path d="M2540 2081 c0 -12 6 -21 16 -21 9 0 14 7 12 17 -5 25 -28 28 -28 4z" style="fill: rgb(65, 124, 238);"/>
  </g>
</svg>