<?xml version="1.0" encoding="utf-8"?>
<svg viewBox="0 95.957 283.475 26.612" xmlns="http://www.w3.org/2000/svg">
  <g transform="matrix(0.10000000149011612, 0, 0, -0.10000000149011612, -107.52500312812631, 328.5152026491643)" fill="#000000" stroke="none">
    <path d="M 2310 2317 C 2215 2284 2202 2129 2289 2077 C 2352 2040 2445 2064 2475 2126 C 2483 2144 2490 2167 2490 2179 C 2490 2198 2484 2200 2420 2200 C 2364 2200 2350 2197 2350 2185 C 2350 2173 2363 2170 2405 2170 C 2468 2170 2473 2161 2431 2119 C 2408 2097 2392 2090 2361 2090 C 2304 2090 2270 2122 2263 2181 C 2258 2222 2261 2231 2287 2260 C 2326 2304 2387 2306 2429 2266 C 2444 2252 2461 2240 2468 2240 C 2505 2240 2450 2306 2402 2320 C 2357 2332 2310 2317 2310 2317 Z" style="fill: rgb(65, 124, 238);"/>
    <path d="M 3474 2311 C 3351 2255 3392 2060 3527 2060 C 3604 2060 3644 2092 3661 2167 C 3661 2167 3672.01 2199.08 3668 2200 C 3654.201 2203.165 3593 2200 3593 2200 C 3538 2200 3522.235 2199.695 3522 2188 C 3521.828 2179.459 3548 2174 3578 2172 C 3607 2170 3630 2164 3630 2159 C 3630 2153 3617 2135 3601 2119 C 3543 2061 3450 2092 3435 2174 C 3416 2270 3535 2333 3604 2263 C 3618 2249 3636 2240 3645 2242 C 3660 2245 3659 2249 3639 2274 C 3616 2303 3565 2322.209 3533 2322.209 C 3523 2322.209 3497 2321 3474 2311 Z" style="fill: rgb(65, 124, 238);"/>
    <path d="M 1140 2232 C 1121 2184 1097 2126 1088 2103 C 1071 2062 1071 2060 1088 2060 C 1098 2060 1110 2072 1117 2090 C 1128 2119 1130 2120 1193 2120 C 1255 2120 1258 2119 1270 2090 C 1277 2074 1289 2060 1296 2060 C 1304 2060 1310 2063 1310 2066 C 1310 2069 1287 2127 1259 2196 C 1223 2284 1203 2320 1191 2320 C 1180 2320 1164 2293 1140 2232 Z M 1234 2172 C 1241 2151 1231.81 2152.397 1183.81 2152.397 C 1183.81 2152.397 1153.067 2147.606 1147.19 2154.793 C 1138.58 2165.321 1161 2202 1161 2202 C 1172 2231 1184 2258 1187 2264 C 1193 2273 1217 2226 1234 2172 Z" style="fill: rgb(65, 124, 238);"/>
    <path d="M1380 2190 l0 -130 80 0 c64 0 80 3 80 15 0 12 -13 15 -60 15 l-60 0 0 115 c0 108 -1 115 -20 115 -19 0 -20 -7 -20 -130z" style="fill: rgb(65, 124, 238);"/>
    <path d="M 1620 2190 C 1620 2081 1622 2060 1635 2060 C 1647 2060 1650 2073 1650 2115 L 1650 2170 L 1705 2170 C 1747 2170 1760 2173 1760 2185 C 1760 2197 1747 2200 1705 2200 L 1650 2200 L 1650 2245 L 1650 2289 L 1707 2292 C 1741 2294 1768.609 2287.816 1768 2308 C 1767.496 2324.682 1752 2324.653 1696 2324.653 C 1696 2324.653 1628.118 2328.656 1620 2320 C 1613.089 2312.631 1620 2190 1620 2190 Z" style="fill: rgb(65, 124, 238);"/>
    <path d="M1876 2203 c-27 -65 -51 -124 -53 -130 -3 -8 2 -13 12 -13 9 0 22 13 28 30 11 29 13 30 77 30 64 0 66 -1 77 -30 6 -17 19 -30 28 -30 10 0 15 5 12 13 -67 170 -103 247 -117 247 -11 0 -31 -36 -64 -117z m90 15 c10 -29 21 -56 22 -60 2 -4 -20 -8 -48 -8 -28 0 -50 4 -48 8 2 4 12 31 22 60 11 29 23 52 26 52 3 0 15 -23 26 -52z" style="fill: rgb(65, 124, 238);"/>
    <path d="M2620 2243 c-18 -43 -41 -98 -51 -122 -23 -52 -23 -61 -5 -61 7 0 19 14 26 30 12 29 15 30 77 30 63 0 65 -1 76 -30 7 -18 19 -30 29 -30 17 0 17 2 0 43 -9 23 -33 81 -52 129 -45 113 -57 114 -100 11z m79 -40 l21 -53 -50 0 c-28 0 -50 2 -50 4 0 19 45 115 51 109 4 -4 17 -32 28 -60z" style="fill: rgb(65, 124, 238);"/>
    <path d="M 2860 2190 C 2860 2081 2862 2060 2875 2060 C 2886 2060 2890 2072 2890 2104 C 2890 2129 2895 2152 2901 2155 C 2923 2169 2956 2149 2983 2105 C 3001 2077 3019 2060 3032 2060 C 3053 2060 3051 2066 3012 2119 L 2987 2152 L 3016 2175 C 3039 2194 3045 2205 3045 2240 C 3045 2301 3018 2320 2929 2320 C 2929 2320 2868.812 2323.216 2863.388 2318.563 C 2845.08 2302.856 2860 2190 2860 2190 Z M 3007 2260 C 3024 2226 3004 2198 2956 2187 C 2900 2173 2890 2182 2890 2240 C 2890 2240 2883.317 2270.243 2895.679 2281.913 C 2908.305 2293.831 2942 2288 2942 2288 C 2986 2285 2996 2281 3007 2260 Z" style="fill: rgb(65, 124, 238);"/>
    <path d="M3180 2243 c-18 -43 -41 -98 -51 -122 -23 -52 -23 -61 -5 -61 7 0 19 14 26 30 12 29 15 30 77 30 63 0 65 -1 76 -30 7 -18 19 -30 29 -30 17 0 17 2 0 43 -9 23 -33 81 -52 129 -45 113 -57 114 -100 11z m79 -40 l21 -53 -50 0 c-28 0 -50 2 -50 4 0 19 45 115 51 109 4 -4 17 -32 28 -60z" style="fill: rgb(65, 124, 238);"/>
    <path d="M 3746.962 2190 C 3746.962 2190 3738.817 2060 3750 2060 C 3757.344 2060 3830 2060 3830 2060 C 3894 2060 3910 2063 3910 2075 C 3910 2087 3896 2090 3845 2090 L 3780 2090 L 3780 2135 L 3780 2180 L 3840 2180 C 3887 2180 3900 2183 3900 2195 C 3900 2207 3887 2210 3840 2210 L 3780 2210 L 3780 2250 L 3780 2290 L 3845 2290 C 3896 2290 3910 2293 3910 2305 C 3910 2317 3894 2320 3830 2320 C 3830 2320 3776.199 2324.971 3750 2320 C 3742.424 2318.563 3746.962 2190 3746.962 2190 Z" style="fill: rgb(65, 124, 238);"/>
  </g>
</svg>